<svg viewBox="0 0 17 16" fill="none" xmlns="http://www.w3.org/2000/svg">
<path d="M7.79165 2.15336C7.79165 1.21024 8.58428 0.446045 9.56248 0.446045C10.5407 0.446045 11.3333 1.21024 11.3333 2.15336C11.3333 3.09648 10.5407 3.86068 9.56248 3.86068C8.58428 3.86068 7.79165 3.09648 7.79165 2.15336ZM14.2878 8.74907L12.4284 7.85307C12.4284 7.85307 10.8219 5.4 10.7858 5.3597C10.3147 4.84068 9.63473 4.54361 8.92003 4.54361C8.01761 4.54361 7.11448 4.74917 6.30769 5.13843L4.51844 6.00097C4.0644 6.22019 3.72936 6.61697 3.59903 7.09092L3.15065 8.72107C3.00048 9.26809 3.33836 9.82878 3.90503 9.97356C4.47311 10.119 5.05394 9.79326 5.20411 9.24624L5.6114 7.76566L6.90836 7.14009L6.43944 9.07278C6.19082 10.0972 6.67957 11.1755 7.62873 11.6952L10.4451 13.2373C10.5556 13.298 10.6243 13.4121 10.6243 13.535V15.8133C10.6243 16.3794 11.1003 16.8377 11.6868 16.8377C12.2733 16.8377 12.7493 16.3794 12.7493 15.8133V13.535C12.7493 12.6773 12.2683 11.881 11.4948 11.4569L9.56532 10.4004L10.1667 8.23892L10.7865 9.18819C10.8899 9.34663 11.0372 9.47502 11.2108 9.55902L13.3358 10.5834C13.4888 10.6565 13.6503 10.692 13.8104 10.692C14.1999 10.692 14.5754 10.4844 14.7617 10.1252C15.0237 9.61912 14.8112 9.0038 14.2864 8.75043L14.2878 8.74907ZM6.98344 12.4813C6.40828 12.3713 5.85011 12.7394 5.74103 13.2953L5.7134 13.4319L4.71678 15.3537C4.45469 15.8597 4.66719 16.475 5.19207 16.7284C5.34436 16.8015 5.50657 16.837 5.66665 16.837C6.05623 16.837 6.43165 16.6294 6.61794 16.2701L7.68044 14.2214C7.72436 14.1374 7.75553 14.0479 7.77323 13.955L7.82778 13.6791C7.93828 13.1239 7.56003 12.5871 6.98344 12.4813Z" fill="#363433"/>
</svg>
