<svg width="17" height="17" viewBox="0 0 17 17" fill="none" xmlns="http://www.w3.org/2000/svg">
<g clip-path="url(#clip0_20_34)">
<path d="M16.6891 15.1904L13.3987 11.8987C15.8607 8.60863 15.1894 3.94567 11.8994 1.4837C8.60932 -0.978266 3.94636 -0.306968 1.48439 2.98308C-0.97758 6.27313 -0.306281 10.9361 2.98377 13.3981C5.62661 15.3757 9.25649 15.3757 11.8994 13.3981L15.1911 16.6898C15.6047 17.1034 16.2754 17.1034 16.689 16.6898C17.1027 16.2761 17.1027 15.6054 16.689 15.1918L16.6891 15.1904ZM7.469 12.7627C4.54496 12.7627 2.17458 10.3923 2.17458 7.46831C2.17458 4.54427 4.54496 2.1739 7.469 2.1739C10.393 2.1739 12.7634 4.54427 12.7634 7.46831C12.7603 10.391 10.3917 12.7596 7.469 12.7627Z" fill="#928E8D"/>
</g>
<defs>
<clipPath id="clip0_20_34">
<rect width="17" height="17" fill="white"/>
</clipPath>
</defs>
</svg>
