<svg width="14" height="14" viewBox="0 0 14 14" fill="none" xmlns="http://www.w3.org/2000/svg">
<g clip-path="url(#clip0_65_292)">
<path d="M11.9583 0H2.04167C0.915833 0 0 0.915833 0 2.04167V11.6667H3.93225L6.03108 13.4342C6.3105 13.6827 6.66108 13.8052 7.00817 13.8052C7.34825 13.8052 7.68367 13.6879 7.945 13.4546L10.108 11.6667H14V2.04167C14 0.915833 13.0842 0 11.9583 0ZM12.25 9.91667H9.47858L7.00175 11.9648L4.571 9.91667H1.75V2.04167C1.75 1.88125 1.88067 1.75 2.04167 1.75H11.9583C12.1193 1.75 12.25 1.88125 12.25 2.04167V9.91667ZM7.41242 3.08758L9.625 5.25H7.875V8.75H6.125V5.25H4.375L6.58758 3.08758C6.81567 2.8595 7.18492 2.8595 7.41242 3.08758Z" fill="#D3624B"/>
</g>
<defs>
<clipPath id="clip0_65_292">
<rect width="14" height="14" fill="white"/>
</clipPath>
</defs>
</svg>
