<svg width="17" height="17" viewBox="0 0 17 17" fill="none" xmlns="http://www.w3.org/2000/svg">
<g clip-path="url(#clip0_19_57)">
<path d="M12.0056 1.45208C11.0698 0.515667 9.82459 0 8.50001 0C7.17543 0 5.93018 0.515667 4.99376 1.45208C3.06072 3.38512 3.06072 6.53083 4.99943 8.46954L6.76672 10.1979C7.24484 10.6654 7.87243 10.8991 8.50001 10.8991C9.12759 10.8991 9.75518 10.6654 10.2333 10.1979L12.0056 8.46387C12.942 7.52746 13.4583 6.28221 13.4583 4.95762C13.4583 3.63304 12.942 2.38921 12.0056 1.45208ZM8.50001 7.07625C7.3263 7.07625 6.37501 6.12496 6.37501 4.95125C6.37501 3.77754 7.3263 2.82625 8.50001 2.82625C9.67372 2.82625 10.625 3.77754 10.625 4.95125C10.625 6.12496 9.67372 7.07625 8.50001 7.07625ZM17 11.8731C17.0014 12.1238 16.8704 12.3562 16.6565 12.4844L9.67159 16.6756C9.31034 16.8923 8.90518 17.0007 8.50072 17.0007C8.09626 17.0007 7.69039 16.8923 7.32984 16.6756L0.343553 12.4844C0.128928 12.3555 -0.00140523 12.1231 1.14321e-05 11.8731C0.0014281 11.623 0.134595 11.3921 0.350636 11.266L3.78959 9.25296C3.86043 9.33087 3.93339 9.40808 4.00847 9.48317L5.77576 11.2108C6.50393 11.9234 7.47222 12.3165 8.50001 12.3165C9.5278 12.3165 10.4954 11.9234 11.2243 11.2108L13.0078 9.46617C13.0773 9.39675 13.1453 9.32521 13.2111 9.25296L16.6494 11.2653C16.8654 11.3921 16.9986 11.6237 17 11.8731Z" fill="#1E1E1E"/>
</g>
<defs>
<clipPath id="clip0_19_57">
<rect width="17" height="17" fill="white"/>
</clipPath>
</defs>
</svg>
