<svg width="37" height="37" viewBox="0 0 37 37" fill="none" xmlns="http://www.w3.org/2000/svg">
<path d="M13.0301 19.0704C15.0327 19.0565 16.2028 17.945 16.2414 15.9901C16.2028 14.1 14.9972 12.9654 13.0116 12.9546C11.0352 12.9654 9.83265 14.1062 9.79565 16.0333C9.83111 17.9218 11.0321 19.0565 13.0054 19.0704H13.0301ZM11.3373 16.0333C11.3574 14.9773 11.8769 14.5024 13.0116 14.4963C14.157 14.5024 14.6781 14.9742 14.6997 15.9917C14.6781 17.0616 14.1755 17.521 13.0177 17.5303H13.0147C11.8599 17.521 11.3574 17.0647 11.3373 16.0348V16.0333Z" fill="#D3624B"/>
<path d="M23.976 12.9531C22.0011 12.9639 20.7971 14.1047 20.7585 16.0333C20.7971 17.9203 21.998 19.055 23.9698 19.0689H23.9945C25.9987 19.055 27.1688 17.9435 27.2043 15.9886C27.1673 14.0985 25.9632 12.9639 23.976 12.9515V12.9531ZM23.9822 17.5272H23.9791C22.8244 17.518 22.3218 17.0616 22.3002 16.0333C22.3218 14.9757 22.8429 14.5009 23.976 14.4947C25.4606 14.5025 25.6503 15.3689 25.6626 15.9902C25.6425 17.0585 25.14 17.5195 23.9822 17.5272Z" fill="#D3624B"/>
<path d="M12.3672 25.6224C12.0619 25.9184 12.0527 26.4056 12.3487 26.7124C12.4997 26.8697 12.7017 26.9467 12.9021 26.9467C13.0948 26.9467 13.2891 26.8743 13.4386 26.7294C16.8812 23.4009 20.188 23.3932 23.5535 26.7232C23.8557 27.0223 24.3459 27.0207 24.6435 26.717C24.9425 26.4149 24.9395 25.9262 24.6373 25.6271C20.6706 21.7004 16.4279 21.6974 12.3672 25.6209V25.6224Z" fill="#D3624B"/>
<path d="M18.4955 1.54163C7.545 1.54163 1.54175 7.95496 1.54175 18.5138C1.54175 29.2993 7.35537 35.4583 18.5047 35.4583C29.5492 35.4583 35.2534 29.6925 35.4584 18.4861C35.2703 7.62967 29.2501 1.54163 18.4955 1.54163ZM18.5047 33.9166C8.322 33.8565 3.27766 28.8137 3.08341 18.5C3.26996 8.33421 8.45766 3.14804 18.4955 3.08329C25.4098 3.128 33.6978 5.84288 33.9167 18.4861C33.7271 28.8091 28.6828 33.8565 18.5047 33.9166Z" fill="#D3624B"/>
</svg>
