<svg width="35" height="35" viewBox="0 0 35 35" fill="none" xmlns="http://www.w3.org/2000/svg">
<g clip-path="url(#clip0_34_689)">
<path d="M23.3333 3.64583C23.3333 1.63188 24.9652 0 26.9792 0C28.9931 0 30.625 1.63188 30.625 3.64583C30.625 5.65979 28.9931 7.29167 26.9792 7.29167C24.9652 7.29167 23.3333 5.65979 23.3333 3.64583ZM32.8125 14.5833H30.4777L29.6217 12.9865C28.2231 10.3731 25.5135 8.75 22.5502 8.75H16.0125C14.8998 8.75 13.8615 9.24875 13.1658 10.1179L10.6867 13.2169C9.93125 14.1604 10.0844 15.5371 11.0279 16.291C11.9715 17.045 13.3496 16.8919 14.1021 15.9498L16.3625 13.125H19.2646C19.2646 13.125 16.4398 17.4956 16.3888 17.6225C15.4467 19.9179 16.2867 22.5473 18.4698 23.9254L24.7902 27.5231V32.8125C24.7902 34.0215 25.7702 35 26.9777 35C28.1852 35 29.1652 34.0215 29.1652 32.8125V27.0988C29.1652 25.7906 28.4594 24.5773 27.3219 23.9298L22.7004 21.3004L26.215 15.8929L26.8246 17.0319C27.4604 18.2204 28.6912 18.9583 30.0387 18.9583H32.811C34.0185 18.9583 34.9985 17.9798 34.9985 16.7708C34.9985 15.5619 34.02 14.5833 32.8125 14.5833ZM5.10417 5.83333H13.8542C15.0631 5.83333 16.0417 4.85479 16.0417 3.64583C16.0417 2.43688 15.0631 1.45833 13.8542 1.45833H5.10417C3.89521 1.45833 2.91667 2.43688 2.91667 3.64583C2.91667 4.85479 3.89521 5.83333 5.10417 5.83333ZM5.10417 16.0417H2.1875C0.978542 16.0417 0 17.0202 0 18.2292C0 19.4381 0.978542 20.4167 2.1875 20.4167H5.10417C6.31313 20.4167 7.29167 19.4381 7.29167 18.2292C7.29167 17.0202 6.31313 16.0417 5.10417 16.0417ZM6.5625 8.75H3.64583C2.43688 8.75 1.45833 9.72854 1.45833 10.9375C1.45833 12.1465 2.43688 13.125 3.64583 13.125H6.5625C7.77146 13.125 8.75 12.1465 8.75 10.9375C8.75 9.72854 7.77146 8.75 6.5625 8.75ZM17.2565 25.8752C16.3654 25.3546 15.2571 25.5369 14.5746 26.25H10.936C9.72708 26.25 8.74854 27.2285 8.74854 28.4375C8.74854 29.6465 9.72708 30.625 10.936 30.625H15.7602C16.5375 30.625 17.2565 30.2123 17.6488 29.54L18.0425 28.8677C18.6506 27.825 18.2992 26.4848 17.2565 25.8752Z" fill="#679693"/>
</g>
<defs>
<clipPath id="clip0_34_689">
<rect width="35" height="35" fill="white"/>
</clipPath>
</defs>
</svg>
