<svg width="10" height="10" viewBox="0 0 10 10" fill="none" xmlns="http://www.w3.org/2000/svg">
<path d="M5 0.0175018C3.89747 0.0187148 2.84045 0.4572 2.0608 1.23676C1.28116 2.01633 0.842571 3.07331 0.841248 4.17584C0.841248 5.24667 1.67041 6.9225 3.30583 9.15667C3.50052 9.42339 3.75544 9.64037 4.04983 9.78996C4.34423 9.93955 4.66978 10.0175 5 10.0175C5.33022 10.0175 5.65577 9.93955 5.95016 9.78996C6.24456 9.64037 6.49947 9.42339 6.69416 9.15667C8.32958 6.9225 9.15875 5.24667 9.15875 4.17584C9.15742 3.07331 8.71883 2.01633 7.93919 1.23676C7.15955 0.4572 6.10252 0.0187148 5 0.0175018ZM5 5.83333C4.67036 5.83333 4.34813 5.73559 4.07405 5.55245C3.79997 5.36932 3.58634 5.10902 3.4602 4.80447C3.33405 4.49993 3.30105 4.16482 3.36536 3.84152C3.42966 3.51822 3.5884 3.22124 3.82149 2.98816C4.05457 2.75507 4.35155 2.59633 4.67485 2.53203C4.99815 2.46772 5.33326 2.50072 5.6378 2.62687C5.94235 2.75302 6.20264 2.96664 6.38578 3.24072C6.56892 3.5148 6.66666 3.83703 6.66666 4.16667C6.66666 4.6087 6.49107 5.03262 6.17851 5.34518C5.86595 5.65774 5.44203 5.83333 5 5.83333Z" fill="white"/>
</svg>
