<svg width="21" height="21" viewBox="0 0 21 21" fill="none" xmlns="http://www.w3.org/2000/svg">
<g clip-path="url(#clip0_67_291)">
<path d="M15.8574 8.96829C15.7399 8.96829 15.6224 8.93079 15.5241 8.85746C15.3349 8.71579 15.2566 8.47079 15.3274 8.24579L15.8499 6.56996L14.5291 5.49496C14.3516 5.34412 14.2866 5.09829 14.3674 4.87996C14.4474 4.66162 14.6558 4.51579 14.8891 4.51579H16.5566L17.1466 2.85996C17.2274 2.64246 17.4349 2.49829 17.6674 2.49829C17.8999 2.49829 18.1074 2.64246 18.1883 2.85996L18.7783 4.51579H20.4458C20.6791 4.51579 20.8874 4.66162 20.9674 4.88079C21.0474 5.09996 20.9816 5.34579 20.8033 5.49662L19.4891 6.56746L20.0324 8.22329C20.1066 8.44746 20.0316 8.69412 19.8441 8.83829C19.6566 8.98246 19.3991 8.99246 19.2016 8.86412L17.6716 7.86746L16.1674 8.87412C16.0741 8.93662 15.9649 8.96829 15.8574 8.96829ZM9.19077 6.46829C9.07327 6.46829 8.95577 6.43079 8.85744 6.35746C8.66827 6.21579 8.58994 5.97079 8.66077 5.74579L9.18327 4.06996L7.86244 2.99496C7.68494 2.84412 7.61994 2.59829 7.70077 2.37996C7.78077 2.16162 7.98911 2.01579 8.22244 2.01579H9.88994L10.4799 0.359958C10.5608 0.142458 10.7683 -0.00170898 11.0008 -0.00170898C11.2333 -0.00170898 11.4408 0.142458 11.5216 0.359958L12.1116 2.01579H13.7791C14.0124 2.01579 14.2208 2.16162 14.3008 2.38079C14.3808 2.59996 14.3149 2.84579 14.1366 2.99662L12.8224 4.06746L13.3658 5.72329C13.4399 5.94746 13.3649 6.19412 13.1774 6.33829C12.9899 6.48246 12.7324 6.49246 12.5349 6.36412L11.0049 5.36746L9.50077 6.37412C9.40744 6.43662 9.29827 6.46829 9.19077 6.46829ZM2.52411 8.96829C2.40661 8.96829 2.28911 8.93079 2.19077 8.85746C2.00161 8.71579 1.92327 8.47079 1.99411 8.24579L2.51661 6.56996L1.19577 5.49579C1.01827 5.34496 0.953272 5.09912 1.03411 4.88079C1.11411 4.66246 1.32244 4.51662 1.55577 4.51662H3.22327L3.81327 2.86079C3.8941 2.64329 4.1016 2.49912 4.33411 2.49912C4.56661 2.49912 4.77411 2.64329 4.85494 2.86079L5.44494 4.51662H7.11244C7.34577 4.51662 7.55411 4.66246 7.63411 4.88162C7.71411 5.10079 7.64827 5.34662 7.46994 5.49746L6.15577 6.56829L6.69911 8.22412C6.77327 8.44829 6.69827 8.69496 6.51077 8.83912C6.32327 8.98329 6.06577 8.99329 5.86827 8.86496L4.33827 7.86829L2.83411 8.87496C2.74077 8.93746 2.63244 8.96912 2.52494 8.96912L2.52411 8.96829ZM15.1658 11.6666H11.6799L12.1633 8.94579C12.2108 8.66746 12.1874 8.51329 12.1691 8.44662C12.0124 7.87162 11.5441 7.49996 10.9758 7.49996C10.7983 7.49996 10.6191 7.53662 10.4424 7.60996C10.2308 7.69746 10.0233 7.91579 9.87411 8.20912L8.04661 11.6666H6.83327C5.45244 11.6666 4.33327 12.7858 4.33327 14.1666V17.5C4.33327 18.8808 5.45244 20 6.83327 20V14.1666C6.83327 13.7066 7.20661 13.3333 7.66661 13.3333C8.12661 13.3333 8.49994 13.7066 8.49994 14.1666V20H13.8158C15.4049 20 16.7724 18.8783 17.0841 17.32L17.6166 14.6566C17.9258 13.11 16.7424 11.6666 15.1649 11.6666H15.1658Z" fill="#D3624B"/>
</g>
<defs>
<clipPath id="clip0_67_291">
<rect width="20" height="20" fill="white" transform="translate(1)"/>
</clipPath>
</defs>
</svg>
