<svg width="21" height="21" viewBox="0 0 21 21" fill="none" xmlns="http://www.w3.org/2000/svg">
<path d="M14.875 11.375H6.125C3.71263 11.375 1.75 13.3376 1.75 15.75V21H5.25V19.6875C5.25 18.963 5.838 18.375 6.5625 18.375H8.75C8.75 18.375 8.75 19.25 9.625 19.25H11.375C11.375 19.25 12.25 19.3419 12.25 18.375H14.4375C15.162 18.375 15.75 18.963 15.75 19.6875V21H19.25V15.75C19.25 13.3376 17.2874 11.375 14.875 11.375ZM15.75 16.625H5.25V15.3125C5.25 14.588 5.838 14 6.5625 14H8.75C8.75 14 8.75 14.875 9.625 14.875H11.375C11.375 14.875 12.25 14.9669 12.25 14H14.4375C15.162 14 15.75 14.588 15.75 15.3125V16.625ZM3.5 4.375V2.625H5.96313C6.8705 1.05788 8.56187 0 10.5 0C13.0961 0 15.2521 1.89613 15.6712 4.375H3.5ZM5.32875 6.125H15.6704C15.2521 8.60388 13.0961 10.5 10.4991 10.5C7.90212 10.5 5.74788 8.60388 5.32875 6.125Z" fill="#D3624B"/>
</svg>
