<svg viewBox="0 0 14 14" xmlns="http://www.w3.org/2000/svg">
<g clip-path="url(#clip0_20_66)">
<path d="M6.41667 1.45833C6.41667 0.65275 7.06942 0 7.875 0C8.68058 0 9.33333 0.65275 9.33333 1.45833C9.33333 2.26392 8.68058 2.91667 7.875 2.91667C7.06942 2.91667 6.41667 2.26392 6.41667 1.45833ZM11.7664 7.09217L10.2352 6.32683C10.2352 6.32683 8.91217 4.2315 8.88242 4.19708C8.4945 3.75375 7.9345 3.5 7.34592 3.5C6.60275 3.5 5.859 3.67558 5.19458 4.00808L3.72108 4.74483C3.34717 4.93208 3.07125 5.271 2.96392 5.67583L2.59467 7.06825C2.471 7.5355 2.74925 8.01442 3.21592 8.13808C3.68375 8.26233 4.16208 7.98408 4.28575 7.51683L4.62117 6.25217L5.68925 5.71783L5.30308 7.36867C5.09833 8.24367 5.50083 9.16475 6.2825 9.60867L8.60183 10.9258C8.69283 10.9777 8.74942 11.0752 8.74942 11.1802V13.1262C8.74942 13.6097 9.14142 14.0012 9.62442 14.0012C10.1074 14.0012 10.4994 13.6097 10.4994 13.1262V11.1802C10.4994 10.4475 10.1033 9.76733 9.46633 9.40508L7.87733 8.50267L8.37258 6.65642L8.883 7.46725C8.96817 7.60258 9.0895 7.71225 9.23242 7.784L10.9824 8.659C11.1084 8.72142 11.2414 8.75175 11.3733 8.75175C11.6941 8.75175 12.0033 8.57442 12.1567 8.26758C12.3725 7.83533 12.1975 7.30975 11.7653 7.09333L11.7664 7.09217ZM5.75108 10.2801C5.27742 10.1862 4.81775 10.5006 4.72792 10.9754L4.70517 11.0921L3.88442 12.7336C3.66858 13.1658 3.84358 13.6914 4.27583 13.9078C4.40125 13.9702 4.53483 14.0006 4.66667 14.0006C4.9875 14.0006 5.29667 13.8232 5.45008 13.5164L6.32508 11.7664C6.36125 11.6947 6.38692 11.6182 6.4015 11.5389L6.44642 11.3033C6.53742 10.829 6.22592 10.3705 5.75108 10.2801Z"/>
</g>
<defs>
<clipPath id="clip0_20_66">
<rect width="14" height="14" fill="white"/>
</clipPath>
</defs>
</svg>
