<svg width="19" height="19" viewBox="0 0 19 19" fill="none" xmlns="http://www.w3.org/2000/svg">
<g clip-path="url(#clip0_67_281)">
<path d="M18.7616 1.36047L4.10791 16.0102C4.42471 16.1646 4.77218 16.2457 5.12458 16.2475H7.63422C7.84417 16.247 8.04559 16.3304 8.19361 16.4794L9.55366 17.8386C10.2912 18.5813 11.2944 18.9993 12.341 19.0001C12.7732 18.9997 13.2023 18.9288 13.6117 18.7904C15.0228 18.3278 16.0492 17.1045 16.2598 15.6344L18.9332 2.93575C19.0609 2.40663 19.0001 1.84961 18.7616 1.36047Z" fill="#D3624B"/>
<path d="M16.0874 0.0612769L3.41965 2.72999C1.25517 3.02735 -0.258426 5.02308 0.0389376 7.18756C0.156392 8.04234 0.550072 8.83533 1.16001 9.4456L2.51928 10.8049C2.66785 10.9534 2.75126 11.1549 2.75111 11.365V13.8747C2.75293 14.2271 2.83408 14.5746 2.98847 14.8914L17.6397 0.237737C17.1583 0.00112167 16.6097 -0.0612217 16.0874 0.0612769Z" fill="#D3624B"/>
</g>
<defs>
<clipPath id="clip0_67_281">
<rect width="19" height="19" fill="white"/>
</clipPath>
</defs>
</svg>
